<?xml version="1.0" encoding="UTF-8" standalone="no"?>
<!DOCTYPE svg PUBLIC "-//W3C//DTD SVG 1.1//EN" "http://www.w3.org/Graphics/SVG/1.1/DTD/svg11.dtd">
<svg version="1.1" xmlns="http://www.w3.org/2000/svg" xmlns:xlink="http://www.w3.org/1999/xlink" preserveAspectRatio="xMidYMid meet" viewBox="0 0 640 640" width="640" height="640"><defs><path d="M-1.1 140.11C-1.1 140.11 -1.27 145.58 -1.6 156.51C-1.27 238.8 -1.1 285.12 -1.1 295.48C-1.1 295.48 -1.1 295.48 -1.1 295.48C299.94 295.48 467.18 295.48 500.62 295.48C500.62 295.48 500.62 295.48 500.62 295.48C500.62 202.26 500.62 150.47 500.62 140.11C500.62 140.11 500.62 140.11 500.62 140.11C199.59 140.11 32.35 140.11 -1.1 140.11Z" id="c15PTf60H5"></path><path d="M42.12 203.11L53.98 232.48L46.78 232.48L44.6 226.6L33.43 226.6L31.25 232.48L24.06 232.48L35.91 203.11L42.12 203.11ZM42.33 220.74L39.05 212.19L38.99 212.19L35.7 220.74L42.33 220.74Z" id="dHl1foCLO"></path><path d="M86.25 203.11C86.25 214.47 86.25 220.78 86.25 222.05C86.25 225.65 85.27 228.38 83.31 230.24C81.37 232.1 78.52 233.02 74.77 233.02C71.03 233.02 68.18 232.1 66.22 230.24C64.28 228.38 63.31 225.65 63.31 222.05C63.31 220.78 63.31 214.47 63.31 203.11L70.01 203.11C70.01 213.3 70.01 218.96 70.01 220.09C70.01 222.46 70.38 224.12 71.13 225.04C71.88 225.97 73.09 226.43 74.77 226.43C76.46 226.43 77.68 225.97 78.43 225.04C79.18 224.12 79.55 222.46 79.55 220.09C79.55 218.96 79.55 213.3 79.55 203.11L86.25 203.11Z" id="aB4TSvpf1"></path><path d="M114.2 203.27C115.72 203.73 116.85 204.18 117.59 204.62C117.66 204.67 118.01 204.91 118.65 205.35C117.03 208.56 116.13 210.34 115.95 210.69C115.72 210.54 115.43 210.36 115.05 210.13C114.68 209.91 113.96 209.61 112.91 209.24C111.87 208.85 110.9 208.66 110 208.66C108.88 208.66 108.01 208.9 107.4 209.38C106.8 209.86 106.51 210.5 106.51 211.3C106.51 211.7 106.64 212.08 106.92 212.42C107.22 212.77 107.7 213.14 108.38 213.52C109.07 213.91 109.68 214.22 110.21 214.46C110.73 214.7 111.55 215.06 112.64 215.54C114.54 216.34 116.16 217.44 117.49 218.82C118.83 220.21 119.5 221.79 119.5 223.54C119.5 225.24 119.2 226.71 118.59 227.97C117.99 229.22 117.16 230.21 116.09 230.92C115.04 231.63 113.87 232.16 112.58 232.5C111.3 232.85 109.92 233.02 108.42 233.02C107.14 233.02 105.89 232.89 104.66 232.63C103.42 232.37 102.39 232.04 101.56 231.65C100.73 231.25 99.98 230.86 99.31 230.49C98.65 230.11 98.16 229.8 97.86 229.53C97.83 229.51 97.67 229.37 97.38 229.14C99.39 225.76 100.51 223.88 100.73 223.5C101.02 223.74 101.41 224.04 101.91 224.42C102.41 224.79 103.29 225.29 104.55 225.91C105.83 226.53 106.95 226.83 107.92 226.83C110.75 226.83 112.16 225.87 112.16 223.94C112.16 223.54 112.06 223.16 111.85 222.82C111.65 222.47 111.3 222.12 110.79 221.78C110.29 221.43 109.84 221.16 109.44 220.97C109.05 220.76 108.41 220.45 107.53 220.03C106.64 219.61 105.98 219.3 105.55 219.09C103.76 218.22 102.38 217.13 101.41 215.81C100.44 214.48 99.96 213.06 99.96 211.55C99.96 208.92 100.93 206.76 102.87 205.08C104.82 203.41 107.05 202.56 109.54 202.56C111.12 202.56 112.67 202.8 114.2 203.27Z" id="e5jFv6wUZ7"></path><path d="M129.34 208.97L129.34 203.11L149.99 203.11L149.99 208.97L143 208.97L143 232.48L136.31 232.48L136.31 208.97L129.34 208.97Z" id="b4cldL3Hsr"></path><path d="M167.66 203.11L167.66 232.48L160.97 232.48L160.97 203.11L167.66 203.11Z" id="e1ILWJ5k2N"></path><path d="M187.18 232.48L180.49 232.48L180.49 203.11L187.18 203.11L198.87 221.34L198.93 221.34L198.93 203.11L205.62 203.11L205.62 232.48L198.93 232.48L187.24 214.25L187.18 232.48Z" id="b502TWHYlF"></path><path d="M249.51 203.11C249.51 215.76 249.51 222.78 249.51 224.19C249.51 227.06 248.72 229.25 247.14 230.76C245.56 232.27 243.3 233.02 240.36 233.02C239.57 233.02 238.79 232.93 238.03 232.73C237.27 232.54 236.63 232.31 236.1 232.05C235.59 231.77 235.12 231.5 234.71 231.22C234.29 230.92 233.99 230.69 233.79 230.49C233.77 230.47 233.67 230.37 233.48 230.2C234.77 226.84 235.48 224.98 235.62 224.6C237.02 225.93 238.29 226.6 239.43 226.6C240.45 226.6 241.27 226.27 241.88 225.6C242.5 224.93 242.82 223.89 242.82 222.48C242.82 221.19 242.82 214.73 242.82 203.11L249.51 203.11Z" id="gdOudVkWp"></path><path d="M264.99 206.99C267.89 204.04 271.38 202.56 275.47 202.56C279.57 202.56 283.06 204.04 285.93 206.97C288.81 209.9 290.25 213.5 290.25 217.78C290.25 222.08 288.84 225.7 286.01 228.64C283.18 231.56 279.67 233.02 275.47 233.02C271.17 233.02 267.62 231.57 264.83 228.66C262.04 225.75 260.65 222.12 260.65 217.78C260.65 213.53 262.09 209.94 264.99 206.99ZM268.59 222C269.07 223.27 269.9 224.34 271.08 225.23C272.27 226.1 273.73 226.54 275.47 226.54C277.97 226.54 279.84 225.69 281.1 223.98C282.38 222.26 283.02 220.2 283.02 217.78C283.02 215.39 282.36 213.33 281.06 211.61C279.77 209.88 277.91 209.01 275.47 209.01C273.04 209.01 271.17 209.88 269.86 211.61C268.54 213.33 267.88 215.39 267.88 217.78C267.88 219.32 268.12 220.73 268.59 222Z" id="a1Cuz1dFjh"></path><path d="M308.45 220.7L308.45 232.48L301.76 232.48L301.76 203.11L308.45 203.11L308.45 214.81L317.91 214.81L317.91 203.11L324.63 203.11L324.63 232.48L317.91 232.48L317.91 220.7L308.45 220.7Z" id="a30kSJZwX9"></path><path d="M344.14 232.48L337.44 232.48L337.44 203.11L344.14 203.11L355.82 221.34L355.89 221.34L355.89 203.11L362.58 203.11L362.58 232.48L355.89 232.48L344.2 214.25L344.14 232.48Z" id="aHuCKkFV"></path><path d="M390.9 203.27C392.42 203.73 393.55 204.18 394.29 204.62C394.36 204.67 394.71 204.91 395.35 205.35C393.73 208.56 392.83 210.34 392.65 210.69C392.42 210.54 392.13 210.36 391.75 210.13C391.38 209.91 390.66 209.61 389.61 209.24C388.57 208.85 387.6 208.66 386.7 208.66C385.58 208.66 384.71 208.9 384.1 209.38C383.5 209.86 383.21 210.5 383.21 211.3C383.21 211.7 383.34 212.08 383.62 212.42C383.91 212.77 384.4 213.14 385.08 213.52C385.77 213.91 386.38 214.22 386.91 214.46C387.43 214.7 388.24 215.06 389.34 215.54C391.24 216.34 392.85 217.44 394.19 218.82C395.53 220.21 396.2 221.79 396.2 223.54C396.2 225.24 395.9 226.71 395.29 227.97C394.69 229.22 393.86 230.21 392.79 230.92C391.74 231.63 390.57 232.16 389.28 232.5C388 232.85 386.62 233.02 385.12 233.02C383.84 233.02 382.59 232.89 381.36 232.63C380.12 232.37 379.09 232.04 378.26 231.65C377.43 231.25 376.68 230.86 376.01 230.49C375.35 230.11 374.86 229.8 374.56 229.53C374.53 229.51 374.37 229.37 374.08 229.14C376.09 225.76 377.2 223.88 377.43 223.5C377.72 223.74 378.11 224.04 378.61 224.42C379.11 224.79 379.99 225.29 381.25 225.91C382.53 226.53 383.65 226.83 384.62 226.83C387.45 226.83 388.86 225.87 388.86 223.94C388.86 223.54 388.76 223.16 388.55 222.82C388.35 222.47 388 222.12 387.49 221.78C386.99 221.43 386.54 221.16 386.14 220.97C385.75 220.76 385.11 220.45 384.23 220.03C383.34 219.61 382.68 219.3 382.25 219.09C380.46 218.22 379.08 217.13 378.11 215.81C377.14 214.48 376.66 213.06 376.66 211.55C376.66 208.92 377.62 206.76 379.57 205.08C381.52 203.41 383.75 202.56 386.24 202.56C387.82 202.56 389.37 202.8 390.9 203.27Z" id="icNs8NRZq"></path><path d="M410.91 206.99C413.8 204.04 417.29 202.56 421.39 202.56C425.49 202.56 428.97 204.04 431.84 206.97C434.72 209.9 436.17 213.5 436.17 217.78C436.17 222.08 434.75 225.7 431.93 228.64C429.1 231.56 425.59 233.02 421.39 233.02C417.09 233.02 413.54 231.57 410.74 228.66C407.95 225.75 406.56 222.12 406.56 217.78C406.56 213.53 408.01 209.94 410.91 206.99ZM414.5 222C414.99 223.27 415.82 224.34 417 225.23C418.19 226.1 419.65 226.54 421.39 226.54C423.88 226.54 425.76 225.69 427.02 223.98C428.29 222.26 428.93 220.2 428.93 217.78C428.93 215.39 428.28 213.33 426.98 211.61C425.69 209.88 423.82 209.01 421.39 209.01C418.96 209.01 417.09 209.88 415.77 211.61C414.45 213.33 413.8 215.39 413.8 217.78C413.8 219.32 414.03 220.73 414.5 222Z" id="a4J92390c7"></path><path d="M454.37 232.48L447.67 232.48L447.67 203.11L454.37 203.11L466.05 221.34L466.12 221.34L466.12 203.11L472.81 203.11L472.81 232.48L466.12 232.48L454.43 214.25L454.37 232.48Z" id="co4jLlpSl"></path></defs><g><g><g><use xlink:href="#c15PTf60H5" opacity="1" fill="#263d5b" fill-opacity="1"></use><g><use xlink:href="#c15PTf60H5" opacity="1" fill-opacity="0" stroke="#000000" stroke-width="1" stroke-opacity="0"></use></g></g><g><use xlink:href="#dHl1foCLO" opacity="1" fill="#ffffff" fill-opacity="1"></use><g><use xlink:href="#dHl1foCLO" opacity="1" fill-opacity="0" stroke="#000000" stroke-width="1" stroke-opacity="0"></use></g></g><g><use xlink:href="#aB4TSvpf1" opacity="1" fill="#ffffff" fill-opacity="1"></use><g><use xlink:href="#aB4TSvpf1" opacity="1" fill-opacity="0" stroke="#000000" stroke-width="1" stroke-opacity="0"></use></g></g><g><use xlink:href="#e5jFv6wUZ7" opacity="1" fill="#ffffff" fill-opacity="1"></use><g><use xlink:href="#e5jFv6wUZ7" opacity="1" fill-opacity="0" stroke="#000000" stroke-width="1" stroke-opacity="0"></use></g></g><g><use xlink:href="#b4cldL3Hsr" opacity="1" fill="#ffffff" fill-opacity="1"></use><g><use xlink:href="#b4cldL3Hsr" opacity="1" fill-opacity="0" stroke="#000000" stroke-width="1" stroke-opacity="0"></use></g></g><g><use xlink:href="#e1ILWJ5k2N" opacity="1" fill="#ffffff" fill-opacity="1"></use><g><use xlink:href="#e1ILWJ5k2N" opacity="1" fill-opacity="0" stroke="#000000" stroke-width="1" stroke-opacity="0"></use></g></g><g><use xlink:href="#b502TWHYlF" opacity="1" fill="#ffffff" fill-opacity="1"></use><g><use xlink:href="#b502TWHYlF" opacity="1" fill-opacity="0" stroke="#000000" stroke-width="1" stroke-opacity="0"></use></g></g><g><use xlink:href="#gdOudVkWp" opacity="1" fill="#ffffff" fill-opacity="1"></use><g><use xlink:href="#gdOudVkWp" opacity="1" fill-opacity="0" stroke="#000000" stroke-width="1" stroke-opacity="0"></use></g></g><g><use xlink:href="#a1Cuz1dFjh" opacity="1" fill="#ffffff" fill-opacity="1"></use><g><use xlink:href="#a1Cuz1dFjh" opacity="1" fill-opacity="0" stroke="#000000" stroke-width="1" stroke-opacity="0"></use></g></g><g><use xlink:href="#a30kSJZwX9" opacity="1" fill="#ffffff" fill-opacity="1"></use><g><use xlink:href="#a30kSJZwX9" opacity="1" fill-opacity="0" stroke="#000000" stroke-width="1" stroke-opacity="0"></use></g></g><g><use xlink:href="#aHuCKkFV" opacity="1" fill="#ffffff" fill-opacity="1"></use><g><use xlink:href="#aHuCKkFV" opacity="1" fill-opacity="0" stroke="#000000" stroke-width="1" stroke-opacity="0"></use></g></g><g><use xlink:href="#icNs8NRZq" opacity="1" fill="#ffffff" fill-opacity="1"></use><g><use xlink:href="#icNs8NRZq" opacity="1" fill-opacity="0" stroke="#000000" stroke-width="1" stroke-opacity="0"></use></g></g><g><use xlink:href="#a4J92390c7" opacity="1" fill="#ffffff" fill-opacity="1"></use><g><use xlink:href="#a4J92390c7" opacity="1" fill-opacity="0" stroke="#000000" stroke-width="1" stroke-opacity="0"></use></g></g><g><use xlink:href="#co4jLlpSl" opacity="1" fill="#ffffff" fill-opacity="1"></use><g><use xlink:href="#co4jLlpSl" opacity="1" fill-opacity="0" stroke="#000000" stroke-width="1" stroke-opacity="0"></use></g></g></g></g></svg>